<svg width="128" height="128" viewBox="0 0 128 128" fill="none" xmlns="http://www.w3.org/2000/svg">
  <rect x="10" y="10" width="108" height="108" rx="31" fill="#0B0C10"/>
  <rect x="11" y="11" width="106" height="106" rx="30" stroke="rgba(255,255,255,0.04)" stroke-width="2"/>
  <path d="M29.926 50.218V35.728H35.156V42.444L34.128 42.336C34.476 40.956 35.186 39.922 36.258 39.234C37.342 38.534 38.63 38.184 40.122 38.184C41.698 38.184 43.066 38.552 44.226 39.288C45.386 40.012 46.284 41.022 46.92 42.318C47.568 43.602 47.892 45.082 47.892 46.758C47.892 48.434 47.562 49.926 46.902 51.234C46.254 52.53 45.344 53.552 44.172 54.3C43 55.036 41.638 55.404 40.086 55.404C38.678 55.404 37.438 55.078 36.366 54.426C35.294 53.762 34.542 52.782 34.11 51.486L35.102 51.126V55.08H29.926V50.218ZM38.802 51.18C39.594 51.18 40.284 50.982 40.872 50.586C41.46 50.19 41.916 49.65 42.24 48.966C42.576 48.282 42.744 47.546 42.744 46.758C42.744 45.97 42.576 45.246 42.24 44.586C41.916 43.914 41.454 43.386 40.854 43.002C40.266 42.606 39.576 42.408 38.784 42.408C38.004 42.408 37.314 42.606 36.714 43.002C36.126 43.386 35.664 43.92 35.328 44.604C35.004 45.276 34.842 45.994 34.842 46.758C34.842 47.534 35.004 48.264 35.328 48.948C35.664 49.632 36.126 50.178 36.714 50.586C37.302 50.982 37.998 51.18 38.802 51.18Z" fill="white"/>
  <path d="M48.928 55.08V38.508H54.14V40.146L53.4 40.002C53.892 39.306 54.522 38.786 55.29 38.442C56.07 38.086 56.97 37.908 57.99 37.908C59.518 37.908 60.87 38.27 62.046 38.994C63.222 39.706 64.14 40.704 64.8 41.988C65.46 43.26 65.79 44.75 65.79 46.458V55.08H60.578V47.154C60.578 46.306 60.428 45.586 60.128 44.994C59.84 44.402 59.428 43.95 58.892 43.638C58.356 43.314 57.726 43.152 57.002 43.152C56.29 43.152 55.66 43.314 55.112 43.638C54.576 43.95 54.152 44.396 53.84 44.976C53.54 45.556 53.39 46.252 53.39 47.064V55.08H48.928Z" fill="white"/>
  <path d="M29.664 92V57.36H41.088V92H29.664Z" fill="white"/>
  <path d="M45.632 57.36H81.776V66.888H69.456V92H58.032V66.888H45.632V57.36Z" fill="white"/>
</svg>